<svg xmlns="http://www.w3.org/2000/svg" viewBox="0 0 270 299"><defs><style>.cls-1{isolation:isolate;}.cls-2{fill:#007466;}.cls-3{fill:#00685c;}.cls-3,.cls-5{fill-rule:evenodd;}.cls-4{fill:#99c7c2;}.cls-5{fill:#fff;}</style></defs><title>Obszar roboczy 1</title><g id="Prostokąt_39" data-name="Prostokąt 39" class="cls-1"><path class="cls-2" d="M263.84,223.85c8,4.59-128.71,83.43-128.71,74.24,0,9.19-136.69-69.65-128.72-74.24-8,4.59-8-153.1,0-148.5-8-4.6,128.72-83.44,128.72-74.25,0-9.19,136.68,69.65,128.71,74.25C271.81,70.75,271.81,228.44,263.84,223.85Z"/><path class="cls-3" d="M263.84,223.85c1.8,1,3.2-6.24,4.18-18a6.88,6.88,0,0,0-.54-.54,416.68,416.68,0,0,0-2.42-2.43,208.77,208.77,0,0,1-2.43-2.43,9.88,9.88,0,0,0-1.21-1.21A9.3,9.3,0,0,0,260.2,198a416.68,416.68,0,0,0-2.42-2.43,9.3,9.3,0,0,0-1.22-1.21,8.65,8.65,0,0,0-1.21-1.21,208.77,208.77,0,0,0-2.43-2.43,8.65,8.65,0,0,0-1.21-1.21,9.3,9.3,0,0,0-1.21-1.22,416.68,416.68,0,0,0-2.43-2.42,9.3,9.3,0,0,0-1.21-1.22,416.68,416.68,0,0,0-2.43-2.42,416.68,416.68,0,0,0-2.42-2.43,208.77,208.77,0,0,1-2.43-2.43,416.68,416.68,0,0,0-2.43-2.42,416.68,416.68,0,0,0-2.42-2.43,208.77,208.77,0,0,1-2.43-2.43,416.68,416.68,0,0,0-2.43-2.42,416.68,416.68,0,0,0-2.42-2.43,9.3,9.3,0,0,0-1.22-1.21,416.68,416.68,0,0,0-2.42-2.43,208.77,208.77,0,0,1-2.43-2.43,9.88,9.88,0,0,0-1.21-1.21,9.3,9.3,0,0,0-1.22-1.21,8.65,8.65,0,0,0-1.21-1.21,9.3,9.3,0,0,0-1.21-1.22,416.68,416.68,0,0,0-2.43-2.42,9.3,9.3,0,0,0-1.21-1.22,416.68,416.68,0,0,0-2.43-2.42,416.68,416.68,0,0,0-2.42-2.43,208.77,208.77,0,0,1-2.43-2.43,416.68,416.68,0,0,0-2.43-2.42,10,10,0,0,0-1.21-1.22,9.65,9.65,0,0,0-7.41-3.5H150l-.21-.19a9.88,9.88,0,0,0-1.21-1.21,9.59,9.59,0,0,0-7.35-3.46H87.8a9.71,9.71,0,0,0-9.71,9.71v17H68.38v12.14H69.6v1.21h1.21v1.21H72v1.22h1.22v1.21h1.21v1.21h1.21v1.22h1.22v1.21h1.21v1.21H79.3v1.21h1.22v1.22h1.21v1.21h1.21v1.21h1.22V186h1.21v1.21h1.21v1.21H87.8v1.22H89v1.21h1.21v1.21h1.21v1.22h1.22v1.21h1.21v1.21h1.21v1.22h1.22v1.21H97.5v1.21h1.21v1.22h1.22v1.21h1.21V203h1.21v1.22h1.22v1.21h1.21v1.21H106v1.22h1.22V209h1.21v1.21h1.21v1.22h1.22v1.21h1.21v1.21h1.21v1.22h1.22v1.21h1.21v1.21h1.21v1.21h1.22V220h1.21v1.21h1.21v1.21h1.22v1.22H123v1.21h1.21V226h1.21v1.22h1.22v1.21h1.21v1.21H129v1.22h1.22v1.21h1.21v1.21h1.21v1.22h1.22v1.21h1.21v1.21h1.21v1.22h1.22v1.21h1.21v1.21H140v1.22h1.22V243h1.21v1.21h1.21v1.22h1.22v1.21H146v1.21h1.21v1.22h1.22v1.21h1.21v1.21h1.21v1.21h1.22v1.22h1.21v1.21h1.21v1.21h1.22v1.22H157v1.21h1.21V260h1.21v1.22h1.22v1.21h1.21v1.21H163v1.22h1.22v1.21h1.21v1.21h1.21v1.22h1.22v1.21h1.21v1.21h1.21v1.22h1.22v1.21h1.21v1.21h1.21v1.22h1.22V277h1.21v1.21h1.21v1.22h1.2C218,258.15,268.79,226.7,263.84,223.85Z"/><g id="Prostokąt_zaokrąglony_3" data-name="Prostokąt zaokrąglony 3"><rect class="cls-4" x="138.75" y="136.25" width="65.51" height="33.97" rx="9.71" ry="9.71"/></g><g id="Prostokąt_39-2" data-name="Prostokąt 39"><path class="cls-5" d="M150.88,158.08v-17a9.7,9.7,0,0,0-9.7-9.71H87.8a9.71,9.71,0,0,0-9.71,9.71v17H68.38v12.14H214V158.08Z"/></g></g></svg>